<mxfile host="65bd71144e" modified="2020-10-13T14:18:39.045Z" agent="5.0 (X11; Linux x86_64) AppleWebKit/537.36 (KHTML, like Gecko) Code/1.50.0 Chrome/83.0.4103.122 Electron/9.2.1 Safari/537.36" etag="5A-Ua35kgIS3HF0dLNDN" version="13.6.5">
    <diagram id="fKrREQkqZchyE4ESXf7V" name="Page-1">
        <mxGraphModel dx="860" dy="800" grid="1" gridSize="10" guides="1" tooltips="1" connect="1" arrows="1" fold="1" page="1" pageScale="1" pageWidth="827" pageHeight="1169" math="0" shadow="0">
            <root>
                <mxCell id="0"/>
                <mxCell id="1" parent="0"/>
                <mxCell id="34" value="" style="rounded=0;whiteSpace=wrap;html=1;" parent="1" vertex="1">
                    <mxGeometry y="270" width="400" height="210" as="geometry"/>
                </mxCell>
                <mxCell id="36" style="edgeStyle=orthogonalEdgeStyle;rounded=0;orthogonalLoop=1;jettySize=auto;html=1;" parent="1" source="3" target="26" edge="1">
                    <mxGeometry relative="1" as="geometry"/>
                </mxCell>
                <mxCell id="3" value="Temperatura" style="rounded=1;whiteSpace=wrap;html=1;strokeWidth=2;fontStyle=1" parent="1" vertex="1">
                    <mxGeometry x="140" y="40" width="120" height="60" as="geometry"/>
                </mxCell>
                <mxCell id="38" style="edgeStyle=orthogonalEdgeStyle;rounded=0;orthogonalLoop=1;jettySize=auto;html=1;" parent="1" source="26" target="29" edge="1">
                    <mxGeometry relative="1" as="geometry"/>
                </mxCell>
                <mxCell id="26" value="Inizializzazione" style="whiteSpace=wrap;html=1;rounded=1;strokeWidth=2;fontStyle=0" parent="1" vertex="1">
                    <mxGeometry x="140" y="170" width="120" height="60" as="geometry"/>
                </mxCell>
                <mxCell id="53" style="edgeStyle=orthogonalEdgeStyle;rounded=0;orthogonalLoop=1;jettySize=auto;html=1;" edge="1" parent="1" source="29" target="32">
                    <mxGeometry relative="1" as="geometry"/>
                </mxCell>
                <mxCell id="29" value="Interpolazione&lt;br&gt;Funzioni temperatura" style="whiteSpace=wrap;html=1;rounded=1;strokeWidth=2;fontStyle=0" parent="1" vertex="1">
                    <mxGeometry x="140" y="300" width="120" height="60" as="geometry"/>
                </mxCell>
                <mxCell id="32" value="Computazione gradiente con&lt;br&gt;SolverGMRES" style="whiteSpace=wrap;html=1;rounded=1;strokeWidth=2;fontStyle=0" parent="1" vertex="1">
                    <mxGeometry x="140" y="400" width="120" height="60" as="geometry"/>
                </mxCell>
                <mxCell id="35" value="Loop Time-Step&lt;br&gt;Pass Risolutivo&lt;br&gt;&lt;i&gt;solve(step)&lt;/i&gt;" style="text;html=1;strokeColor=none;fillColor=none;align=center;verticalAlign=middle;whiteSpace=wrap;rounded=0;" parent="1" vertex="1">
                    <mxGeometry y="280" width="100" height="40" as="geometry"/>
                </mxCell>
                <mxCell id="44" value="" style="rounded=0;whiteSpace=wrap;html=1;" vertex="1" parent="1">
                    <mxGeometry x="427" y="270" width="400" height="210" as="geometry"/>
                </mxCell>
                <mxCell id="45" style="edgeStyle=orthogonalEdgeStyle;rounded=0;orthogonalLoop=1;jettySize=auto;html=1;" edge="1" parent="1" source="46" target="48">
                    <mxGeometry relative="1" as="geometry"/>
                </mxCell>
                <mxCell id="46" value="Laser" style="rounded=1;whiteSpace=wrap;html=1;strokeWidth=2;fontStyle=1" vertex="1" parent="1">
                    <mxGeometry x="567" y="40" width="120" height="60" as="geometry"/>
                </mxCell>
                <mxCell id="47" style="edgeStyle=orthogonalEdgeStyle;rounded=0;orthogonalLoop=1;jettySize=auto;html=1;" edge="1" parent="1" source="48" target="50">
                    <mxGeometry relative="1" as="geometry"/>
                </mxCell>
                <mxCell id="48" value="Inizializzazione" style="whiteSpace=wrap;html=1;rounded=1;strokeWidth=2;fontStyle=0" vertex="1" parent="1">
                    <mxGeometry x="567" y="170" width="120" height="60" as="geometry"/>
                </mxCell>
                <mxCell id="55" style="edgeStyle=orthogonalEdgeStyle;rounded=0;orthogonalLoop=1;jettySize=auto;html=1;" edge="1" parent="1" source="50" target="51">
                    <mxGeometry relative="1" as="geometry"/>
                </mxCell>
                <mxCell id="50" value="Interpolazione&lt;br&gt;Funzioni di radiazioni laser" style="whiteSpace=wrap;html=1;rounded=1;strokeWidth=2;fontStyle=0" vertex="1" parent="1">
                    <mxGeometry x="567" y="300" width="120" height="60" as="geometry"/>
                </mxCell>
                <mxCell id="51" value="Computazione gradiente con&lt;br&gt;SolverGMRES" style="whiteSpace=wrap;html=1;rounded=1;strokeWidth=2;fontStyle=0" vertex="1" parent="1">
                    <mxGeometry x="567" y="400" width="120" height="60" as="geometry"/>
                </mxCell>
                <mxCell id="52" value="Loop Time-Step&lt;br&gt;Pass Risolutivo&lt;br&gt;&lt;i&gt;solve(step)&lt;/i&gt;" style="text;html=1;strokeColor=none;fillColor=none;align=center;verticalAlign=middle;whiteSpace=wrap;rounded=0;" vertex="1" parent="1">
                    <mxGeometry x="427" y="280" width="100" height="40" as="geometry"/>
                </mxCell>
            </root>
        </mxGraphModel>
    </diagram>
</mxfile>